<svg xmlns="http://www.w3.org/2000/svg" viewBox="0 0 48 48">
  <path fill="#4285F4" d="M44 24c0-1.5-.1-2.9-.4-4.3H24v8.1h11.3c-.5 2.6-2 4.8-4.2 6.3v5.2h6.8C41.8 35.5 44 30.2 44 24Z"/>
  <path fill="#34A853" d="M24 44c5.6 0 10.3-1.9 13.7-5l-6.8-5.2c-1.9 1.3-4.3 2-6.9 2-5.3 0-9.8-3.6-11.4-8.4H5.5v5.3C8.9 39.4 16 44 24 44Z"/>
  <path fill="#FBBC04" d="M12.6 27.4c-.4-1.2-.6-2.4-.6-3.7s.2-2.6.6-3.7v-5.3H5.5C4 17.3 3.2 20.5 3.2 24s.8 6.7 2.3 9.3l7.1-5.9Z"/>
  <path fill="#EA4335" d="M24 11.6c3 0 5.6 1 7.7 3l5.7-5.7C34.3 5.7 29.6 4 24 4 16 4 8.9 8.6 5.5 14.7l7.1 5.3C14.2 15.2 18.7 11.6 24 11.6Z"/>
</svg>
