<svg xmlns="http://www.w3.org/2000/svg" viewBox="0 0 48 48">
  <defs>
    <linearGradient id="nlm-g" x1="0" y1="0" x2="1" y2="1">
      <stop offset="0" stop-color="#4285F4"/>
      <stop offset="0.5" stop-color="#9B72F2"/>
      <stop offset="1" stop-color="#EA4335"/>
    </linearGradient>
  </defs>
  <path fill="url(#nlm-g)" d="M24 6c1.8 4.8 4 7 8.8 8.8C28 16.5 25.8 18.7 24 23.6c-1.8-4.9-4-7.1-8.8-8.8C20 13 22.2 10.8 24 6Z"/>
  <path fill="url(#nlm-g)" d="M14 24c1.3 3.5 2.9 5.1 6.4 6.4-3.5 1.3-5.1 2.9-6.4 6.4-1.3-3.5-2.9-5.1-6.4-6.4 3.5-1.3 5.1-2.9 6.4-6.4Z" opacity="0.75"/>
  <path fill="url(#nlm-g)" d="M34 22c1 2.7 2.3 3.9 5 5-2.7 1.1-3.9 2.3-5 5-1.1-2.7-2.3-3.9-5-5 2.7-1.1 3.9-2.3 5-5Z" opacity="0.85"/>
</svg>
